<?xml version="1.0" encoding="UTF-8" standalone="no"?>
<!DOCTYPE svg PUBLIC "-//W3C//DTD SVG 1.1//EN" "http://www.w3.org/Graphics/SVG/1.1/DTD/svg11.dtd">
<svg version="1.1" xmlns="http://www.w3.org/2000/svg" xmlns:xlink="http://www.w3.org/1999/xlink" preserveAspectRatio="xMidYMid meet" viewBox="0 0 640 640" width="640" height="640"><defs><path d="M575.87 575.98C575.95 575.98 575.99 575.98 576 575.98C576 463.31 576 400.72 576 388.2C576 296.34 556.22 225.58 448.83 225.58C397.21 225.58 362.56 253.91 348.42 280.77C348.32 280.77 347.82 280.77 346.92 280.77C346.92 277.66 346.92 262.12 346.92 234.15L245.1 234.15L245.1 575.98C308.72 575.98 344.06 575.98 351.13 575.98C351.13 474.42 351.13 418 351.13 406.72C351.13 362.15 359.57 319.06 414.76 319.06C469.14 319.06 469.95 369.92 469.95 409.58C469.95 420.67 469.95 476.15 469.95 576C477.01 576 512.32 576 575.87 576L575.87 575.98Z" id="e1BoSgyLkE"></path><path d="M575.87 575.98C575.95 575.98 575.99 575.98 576 575.98C576 463.31 576 400.72 576 388.2C576 296.34 556.22 225.58 448.83 225.58C397.21 225.58 362.56 253.91 348.42 280.77C348.32 280.77 347.82 280.77 346.92 280.77C346.92 277.66 346.92 262.12 346.92 234.15L245.1 234.15L245.1 575.98C308.72 575.98 344.06 575.98 351.13 575.98C351.13 474.42 351.13 418 351.13 406.72C351.13 362.15 359.57 319.06 414.76 319.06C469.14 319.06 469.95 369.92 469.95 409.58C469.95 420.67 469.95 476.15 469.95 576C477.01 576 512.32 576 575.87 576L575.87 575.98Z" id="a2NclAujAD"></path><path d="M178.6 234.18L178.6 576L72.45 576L72.45 234.18L178.6 234.18Z" id="cyLagRbEc"></path><path d="M178.6 234.18L178.6 576L72.45 576L72.45 234.18L178.6 234.18Z" id="b1EWx3nzyk"></path><path d="M125.48 187.54C159.42 187.54 186.97 159.42 186.97 125.48C186.94 91.54 159.4 64 125.48 64C91.54 64 64 91.54 64 125.48C64 159.42 91.54 187.54 125.48 187.54Z" id="aLk0c2b4I"></path><path d="M125.48 187.54C159.42 187.54 186.97 159.42 186.97 125.48C186.94 91.54 159.4 64 125.48 64C91.54 64 64 91.54 64 125.48C64 159.42 91.54 187.54 125.48 187.54Z" id="c2hUUAFNxX"></path></defs><g><g><g><use xlink:href="#e1BoSgyLkE" opacity="1" fill="#ffffff" fill-opacity="1"></use><g><use xlink:href="#e1BoSgyLkE" opacity="1" fill-opacity="0" stroke="#000000" stroke-width="1" stroke-opacity="0"></use></g></g><g><use xlink:href="#a2NclAujAD" opacity="1" fill="#000000" fill-opacity="1"></use><g><use xlink:href="#a2NclAujAD" opacity="1" fill-opacity="0" stroke="#000000" stroke-width="1" stroke-opacity="0"></use></g></g><g><use xlink:href="#cyLagRbEc" opacity="1" fill="#ffffff" fill-opacity="1"></use><g><use xlink:href="#cyLagRbEc" opacity="1" fill-opacity="0" stroke="#000000" stroke-width="1" stroke-opacity="0"></use></g></g><g><use xlink:href="#b1EWx3nzyk" opacity="1" fill="#000000" fill-opacity="1"></use><g><use xlink:href="#b1EWx3nzyk" opacity="1" fill-opacity="0" stroke="#000000" stroke-width="1" stroke-opacity="0"></use></g></g><g><use xlink:href="#aLk0c2b4I" opacity="1" fill="#ffffff" fill-opacity="1"></use><g><use xlink:href="#aLk0c2b4I" opacity="1" fill-opacity="0" stroke="#000000" stroke-width="1" stroke-opacity="0"></use></g></g><g><use xlink:href="#c2hUUAFNxX" opacity="1" fill="#000000" fill-opacity="1"></use><g><use xlink:href="#c2hUUAFNxX" opacity="1" fill-opacity="0" stroke="#000000" stroke-width="1" stroke-opacity="0"></use></g></g></g></g></svg>