<?xml version="1.0" encoding="UTF-8" standalone="no"?>
<svg
   xmlns:dc="http://purl.org/dc/elements/1.1/"
   xmlns:cc="http://creativecommons.org/ns#"
   xmlns:rdf="http://www.w3.org/1999/02/22-rdf-syntax-ns#"
   xmlns:svg="http://www.w3.org/2000/svg"
   xmlns="http://www.w3.org/2000/svg"
   xmlns:sodipodi="http://sodipodi.sourceforge.net/DTD/sodipodi-0.dtd"
   xmlns:inkscape="http://www.inkscape.org/namespaces/inkscape"
   inkscape:version="1.0 (4035a4f, 2020-05-01)"
   sodipodi:docname="shining.svg"
   xml:space="preserve"
   style="enable-background:new 0 0 512 512;"
   viewBox="0 0 512 512"
   y="0px"
   x="0px"
   id="Capa_1"
   version="1.1"><metadata
   id="metadata170"><rdf:RDF><cc:Work
       rdf:about=""><dc:format>image/svg+xml</dc:format><dc:type
         rdf:resource="http://purl.org/dc/dcmitype/StillImage" /><dc:title></dc:title></cc:Work></rdf:RDF></metadata><defs
   id="defs168" /><sodipodi:namedview
   inkscape:current-layer="Capa_1"
   inkscape:window-maximized="0"
   inkscape:window-y="0"
   inkscape:window-x="0"
   inkscape:cy="265.56813"
   inkscape:cx="293.53653"
   inkscape:zoom="1.5917969"
   showgrid="false"
   id="namedview166"
   inkscape:window-height="1006"
   inkscape:window-width="800"
   inkscape:pageshadow="2"
   inkscape:pageopacity="0"
   guidetolerance="10"
   gridtolerance="10"
   objecttolerance="10"
   borderopacity="1"
   bordercolor="#666666"
   pagecolor="#ffffff" />
<g
   id="g121">
	<g
   id="g119">
		<path
   id="path117"
   d="M250.956,382.77c-4.086-0.848-23.251,2.453-41.515-7.39c-3.649-1.967-8.197-0.602-10.163,3.044    c-1.965,3.647-0.602,8.196,3.044,10.163c1.556,0.838,3.116,1.6,4.679,2.293c-15.304,6.722-27.668,18.856-34.891,36.791    c-6.853-16.778-18.598-29.534-34.906-36.811c16.632-7.422,28.203-20.402,34.906-36.808c1.436,3.544,2.746,6.006,2.796,6.108    c1.882,3.689,6.402,5.153,10.092,3.271c3.69-1.883,5.154-6.401,3.271-10.092c-0.022-0.1-9.103-16.674-8.03-38.733    c0.613-4.135-2.285-8.245-6.704-9.058c-4.022-0.792-8.478,1.759-9.514,6.277c-0.536,2.341,3.344,42.848-26.052,61.642    c-19.137,12.208-40.863,8.414-44.911,9.332c-8.557,1.948-8.55,14.176,0,16.123c3.998,0.901,26.15-2.883,45.293,9.578    c28.428,18.522,25.291,57.953,25.481,59.719c0,9.249,13.217,11.331,16.134,2.307c0.987-3.073-3.164-42.18,24.905-61.4    c18.493-12.672,41.411-9.616,45.399-10.065C259.396,398.036,260.212,384.728,250.956,382.77z" />
	</g>
</g>
<g
   id="g127">
	<g
   id="g125">
		<path
   id="path123"
   d="M503.965,236.428c-13.713-1.523-111.464,12.208-154.185-77.488c-22.458-47.18-16.698-89.951-17.922-95.317    c-1.102-4.824-5.663-7.714-10.024-7.157c-4.973,0.563-8.272,4.681-8.272,8.827v19.464    c-3.389,66.912-33.839,123.872-97.781,143.921c-36.925,11.583-68.981,6.58-74.966,7.889c-9.598,2.178-9.67,15.963,0.102,18.134    c8.368,1.766,71.326-8.434,120.217,32.169c3.188,2.646,7.917,2.207,10.564-0.978c2.646-3.188,2.209-7.916-0.978-10.564    c-16.776-13.932-36.883-23.888-59.891-29.672c60.573-15.257,97.752-58.495,111.983-119.061    c14.112,60.195,50.984,103.816,112.208,118.997c-60.613,15.167-98.306,58.369-112.295,118.769    c-5.208-22.138-13.896-43.327-26.956-61.831c-2.389-3.385-7.069-4.192-10.454-1.804c-3.386,2.389-4.192,7.069-1.804,10.454    c4.604,6.522,8.747,13.629,12.319,21.124c21.189,44.516,17.445,89.806,17.752,94.175c0.791,11.16,18.999,11.722,18.429-2.077    c-1.029-24.872,0.9-109.129,68.956-149.111c45.923-26.952,97.009-19.079,103.828-20.613    C515.073,252.345,513.961,237.55,503.965,236.428z" />
	</g>
</g>
<g
   id="g133">
	<g
   id="g131">
		<path
   id="path129"
   d="M164.308,113.042c-5.079-1.053-45.121,6.036-63.009-30.052c-8.409-16.93-7.825-35.754-7.71-38.114    c0.602-4.085-2.234-8.238-6.711-9.055c-3.997-0.791-8.474,1.745-9.509,6.29c-0.534,2.33,3.343,42.837-26.05,61.631    c-18.466,11.78-40.018,8.737-44.08,9.19c-9.127,1.038-9.865,14.207-0.832,16.264c4.362,0.982,26.045-2.952,45.293,9.578    c20.514,13.364,24.777,37.908,25.482,51.479c0.097,7.756-0.246,8.658,0.363,10.548c1.121,3.469,4.29,5.798,7.884,5.798    c4.126,0.002,7.469-3.049,8.131-6.788c0.458-2.564-1.544-22.068,7.956-40.945c1.862-3.701,0.372-8.21-3.328-10.073    c-3.701-1.864-8.21-0.372-10.073,3.328c-0.948,1.885-1.829,3.84-2.642,5.856c-6.849-16.789-18.595-29.555-34.917-36.841    c16.631-7.425,28.201-20.402,34.904-36.809c6.699,16.527,18.176,29.448,34.878,36.835c-1.637,0.723-3.274,1.52-4.899,2.398    c-3.645,1.971-5,6.522-3.028,10.167c1.971,3.644,6.521,4.999,10.167,3.029c17.704-9.578,37.046-6.973,41.043-7.418    C172.796,128.286,173.492,114.985,164.308,113.042z" />
	</g>
</g>
<g
   id="g135">
</g>
<g
   id="g137">
</g>
<g
   id="g139">
</g>
<g
   id="g141">
</g>
<g
   id="g143">
</g>
<g
   id="g145">
</g>
<g
   id="g147">
</g>
<g
   id="g149">
</g>
<g
   id="g151">
</g>
<g
   id="g153">
</g>
<g
   id="g155">
</g>
<g
   id="g157">
</g>
<g
   id="g159">
</g>
<g
   id="g161">
</g>
<g
   id="g163">
</g>
<path
   id="path172"
   d="m 319.76442,433.78343 c -2.91835,-1.03391 -5.21062,-3.59218 -5.62625,-6.27914 -0.16035,-1.03656 -0.41753,-8.38674 -0.57152,-16.33374 -0.30353,-15.66417 -1.32896,-25.15407 -4.18819,-38.75986 -4.60128,-21.89548 -12.24985,-41.11704 -22.69868,-57.04382 -3.18348,-4.85245 -3.92148,-6.45949 -3.9479,-8.59679 -0.0623,-5.03563 5.25772,-8.38369 9.85502,-6.20213 4.10228,1.94667 14.36038,19.52576 20.88673,35.79315 3.11697,7.76927 6.9197,19.58765 8.15024,25.32985 0.23979,1.11899 0.64874,2.16601 0.90878,2.32672 0.26004,0.16071 1.40596,-3.15776 2.54648,-7.37439 6.08941,-22.51293 17.08985,-44.61144 30.45927,-61.18886 18.24038,-22.61717 43.69827,-39.16781 73.47374,-47.76663 3.31256,-0.95663 6.02462,-1.8947 6.02682,-2.08461 0.002,-0.1899 -2.63974,-1.08835 -5.87097,-1.99655 -23.90217,-6.71818 -44.70457,-18.58845 -61.88632,-35.31358 -20.02494,-19.49277 -33.23979,-42.6851 -41.97837,-73.67295 -1.28735,-4.56508 -2.41567,-8.22511 -2.50737,-8.13341 -0.0917,0.0917 -1.2997,4.10946 -2.68443,8.92836 -16.1098,56.06225 -51.6161,93.2365 -103.3126,108.16587 -3.31255,0.95663 -6.02462,1.8947 -6.02681,2.08461 -0.002,0.1899 2.63974,1.08835 5.87096,1.99655 17.548,4.93222 33.82307,12.97558 48.9642,24.19878 5.68943,4.21722 7.35643,6.34709 7.35236,9.39383 -0.006,4.08123 -4.59102,7.81644 -8.41704,6.85617 -0.79324,-0.19909 -4.24129,-2.43268 -7.66235,-4.96352 -11.23701,-8.31298 -18.82314,-12.52413 -31.76177,-17.63131 -19.52314,-7.70626 -41.00339,-11.08658 -70.4497,-11.08658 -15.36251,0 -16.97353,-0.33992 -19.27725,-4.06742 -1.61705,-2.61643 -1.65404,-6.9112 -0.0817,-9.48961 2.22729,-3.6525 3.45698,-3.8619 24.88654,-4.23772 26.54486,-0.46555 39.5397,-2.3966 58.42454,-8.68197 54.46785,-18.12835 87.70859,-64.89987 94.52434,-133.000888 0.35812,-3.578205 0.65112,-11.999774 0.65112,-18.714598 0,-10.899801 0.13246,-12.468409 1.23543,-14.630414 1.61796,-3.171472 5.81122,-5.334041 9.13406,-4.710672 2.4417,0.458065 5.51913,2.69352 6.73772,4.894302 0.49092,0.8866 0.89902,7.347131 1.19617,18.93592 0.61242,23.8844 2.95635,38.77225 9.00052,57.1681 8.468,25.77295 19.87268,44.59994 36.96333,61.0195 21.75195,20.89783 50.17061,32.96171 86.50578,36.72218 3.62797,0.37547 14.56013,0.87045 24.29368,1.09994 l 17.69736,0.41727 1.7014,1.57056 c 4.8128,4.44269 4.29077,11.15059 -1.12474,14.45247 -1.88391,1.14863 -3.18636,1.24854 -16.30526,1.2507 -29.07077,0.005 -50.02179,3.29107 -69.85799,10.95758 -17.74481,6.85822 -31.56464,15.68637 -44.57283,28.47327 -18.36291,18.05053 -30.92171,40.7707 -38.10704,68.9396 -4.42485,17.34688 -6.10432,30.44619 -6.71734,52.39311 l -0.39305,14.07165 -1.83485,2.08978 c -1.00917,1.14938 -2.87172,2.37777 -4.139,2.72976 -2.77217,0.76997 -2.36686,0.79219 -5.44525,-0.29842 z"
   style="fill:#ffffff;stroke-width:0.628221" /><path
   id="path174"
   d="m 318.7594,432.76019 c -4.12775,-2.39394 -4.26148,-2.98128 -4.93633,-21.68029 -0.63793,-17.67659 -1.57641,-26.353 -4.19855,-38.81659 -4.42684,-21.04166 -11.57535,-39.27529 -22.02713,-56.18429 -2.42802,-3.92809 -4.24329,-7.61913 -4.42936,-9.00632 -0.2758,-2.05632 -0.0379,-2.62788 1.90106,-4.56682 2.67166,-2.67166 5.61054,-2.97107 8.31119,-0.84673 3.99889,3.14553 13.69991,20.24812 19.37731,34.16164 2.59527,6.36014 6.97863,19.5865 8.57605,25.87737 0.37289,1.46847 0.93781,2.66994 1.25538,2.66994 0.31758,0 1.16882,-2.04957 1.89166,-4.5546 4.56097,-15.80618 8.11571,-25.0211 14.47994,-37.5362 18.34323,-36.07152 46.56269,-59.94598 86.18785,-72.91734 5.44196,-1.78144 9.89447,-3.45558 9.89447,-3.72031 0,-0.26472 -4.87656,-2.07739 -10.83681,-4.02814 -32.56957,-10.65981 -57.69775,-29.58172 -76.41649,-57.5428 -9.682,-14.46245 -16.00755,-28.86781 -23.00073,-52.38019 -0.91243,-3.06776 -1.87803,-5.32935 -2.14579,-5.02576 -0.26775,0.30358 -1.81933,4.9338 -3.44796,10.28939 -10.0785,33.14232 -25.46857,58.0021 -47.68836,77.03162 -15.1651,12.98774 -32.3838,22.28118 -53.35711,28.79843 -4.05987,1.26156 -7.38159,2.54504 -7.38159,2.85216 0,0.30711 3.32172,1.59059 7.38159,2.85215 15.71225,4.88243 27.67418,10.56431 41.0793,19.51253 13.21438,8.8209 15.71997,12.839 10.9688,17.59016 -2.77739,2.77739 -4.95226,2.78883 -8.95184,0.0471 -14.61763,-10.02053 -18.44243,-12.39724 -25.03491,-15.55651 -23.59066,-11.30521 -42.16604,-14.99693 -80.36911,-15.97281 -10.47514,-0.26757 -15.65371,-0.6429 -17.07729,-1.23771 -5.83111,-2.4364 -5.22194,-13.09423 0.84175,-14.727 1.31859,-0.35507 10.87259,-0.92438 21.23111,-1.26514 28.35058,-0.93265 38.97576,-2.47386 56.10806,-8.13861 22.37313,-7.39763 37.1146,-16.24864 52.76282,-31.67962 15.2616,-15.04973 26.81182,-34.2626 34.32617,-57.09885 6.50361,-19.76459 8.93986,-34.11698 9.78802,-57.663077 0.32982,-9.15632 0.74507,-17.517109 0.92276,-18.579531 0.17769,-1.062423 1.09698,-2.653403 2.04286,-3.53551 4.33344,-4.041263 7.88964,-4.050722 12.20079,-0.03245 2.0137,1.876896 2.11619,2.695109 3.03779,24.249937 0.9779,22.871521 2.98636,35.471691 8.27675,51.924551 8.27744,25.74246 19.13931,44.44464 35.03602,60.32573 17.22046,17.20353 36.93316,28.15121 62.21629,34.55256 15.18922,3.84571 27.41848,5.17345 54.96932,5.9681 13.01754,0.37546 13.90649,0.47783 15.29405,1.76139 3.36604,3.11374 4.1533,7.39334 2.00746,10.91264 -2.25665,3.70103 -2.99699,3.83633 -24.90875,4.552 -28.29646,0.92419 -40.23314,2.68538 -57.9219,8.54601 -48.04556,15.91844 -79.70996,53.81495 -91.13842,109.07604 -2.61924,12.66502 -3.7272,22.89583 -4.47521,41.32378 -0.61763,15.21549 -0.71723,16.06538 -2.05013,17.49282 -3.20918,3.43681 -6.82972,4.09606 -10.57285,1.92519 z"
   style="fill:#ffffff;stroke-width:0.628221" /><path
   id="path176"
   d="m 168.84673,475.26002 c -3.53316,-1.53597 -4.32613,-3.71041 -4.76049,-13.05397 -0.94747,-20.38078 -6.20687,-35.213 -16.34212,-46.08688 -7.14088,-7.66129 -14.9967,-12.20112 -26.18338,-15.1312 -4.86403,-1.27402 -8.00193,-1.62374 -16.96197,-1.8904 -6.938804,-0.20652 -11.74187,-0.6332 -13.021824,-1.1568 -3.950381,-1.61599 -5.754187,-7.18486 -3.540876,-10.9317 1.738517,-2.94307 3.925331,-3.79429 9.749203,-3.79487 2.883617,-2.9e-4 8.352637,-0.28909 12.153377,-0.64179 30.98162,-2.87499 49.11874,-21.14922 53.39927,-53.80295 0.51801,-3.9516 0.94183,-9.60646 0.94183,-12.56634 v -5.38161 l 2.43898,-2.43898 c 2.10772,-2.10772 2.82146,-2.43897 5.25515,-2.43897 1.90463,0 3.35604,0.42465 4.48401,1.31191 2.8792,2.26478 3.52739,4.33353 3.52739,11.25803 0,10.35346 2.02885,20.86711 5.71037,29.59142 3.09158,7.32633 3.43207,8.88217 2.4583,11.23306 -0.98308,2.37338 -3.95889,4.39619 -6.47226,4.39955 -3.32584,0.004 -5.44879,-1.70503 -7.46312,-6.00955 -1.0397,-2.2218 -1.97843,-4.03964 -2.08605,-4.03964 -0.10763,0 -1.08216,1.89436 -2.16563,4.20967 -6.06603,12.96281 -17.39386,24.77174 -29.82447,31.09114 l -3.72016,1.89123 4.38031,2.30496 c 12.53841,6.59779 21.94535,16.35495 28.61481,29.68011 1.36347,2.72412 2.60001,4.95295 2.74788,4.95295 0.14788,0 1.09259,-1.8167 2.09937,-4.03711 5.70036,-12.57187 16.76527,-24.28715 28.80776,-30.50103 2.15951,-1.1143 3.92638,-2.23711 3.92638,-2.49514 0,-0.25803 -1.14852,-0.98706 -2.55226,-1.62006 -5.89822,-2.65972 -7.45124,-8.00867 -3.47866,-11.98126 2.83007,-2.83007 5.31353,-2.81394 11.71431,0.0761 2.69456,1.21663 7.06413,2.76574 9.71015,3.44248 5.03545,1.28785 17.33091,2.51234 25.22716,2.51234 4.35078,0 4.76286,0.12299 6.84098,2.04172 2.74996,2.53904 3.39891,5.60703 1.8683,8.83257 -1.9432,4.09499 -3.0597,4.43776 -16.03427,4.92265 -9.30403,0.3477 -12.81388,0.74301 -17.5974,1.98193 -10.53316,2.72806 -17.28662,6.39586 -24.39232,13.24745 -11.3012,10.89705 -17.24506,26.4777 -18.12127,47.50129 -0.39894,9.57189 -1.16334,11.6868 -4.85766,13.43987 -2.56952,1.21931 -3.81882,1.23432 -6.4791,0.0778 z"
   style="fill:#ffffff;stroke-width:0.628221" /><path
   id="path178"
   d="M 80.275299,203.9328 77.958,201.80915 77.510505,192.70467 C 76.822823,178.71344 74.472253,168.3412 69.96203,159.39587 60.769916,141.16473 45.534225,131.38128 23.264698,129.40965 c -3.812026,-0.33749 -9.290282,-0.61604 -12.173904,-0.619 -6.0291015,-0.006 -8.3135096,-0.9726 -9.8242012,-4.15615 -1.18538407,-2.49801 -1.2000345,-4.0922 -0.062624,-6.8144 1.6534794,-3.95734 3.0448339,-4.3776 16.0442152,-4.84616 12.594823,-0.45399 19.699655,-1.7982 27.259884,-5.15746 8.599487,-3.82105 17.104883,-11.124904 22.281063,-19.133463 6.619412,-10.24151 10.791038,-26.471733 10.798495,-42.012858 0.0025,-5.746783 1.13784,-8.182361 4.573027,-9.812463 2.76708,-1.313067 3.293944,-1.299217 6.53388,0.171764 3.808727,1.72922 4.371738,3.326233 4.774177,13.542319 0.754135,19.143848 6.329909,34.550608 16.42277,45.378696 11.0638,11.869775 24.99811,17.129275 45.38154,17.129275 5.90588,0 9.06506,0.27 10.58371,0.90453 5.16218,2.1569 6.18711,8.85409 1.94937,12.7377 -2.18161,1.99929 -2.42225,2.06395 -7.75761,2.08445 -13.90629,0.0534 -25.67414,2.13003 -33.96541,5.99367 -2.66005,1.23954 -5.74058,2.28646 -6.84561,2.32647 -4.12009,0.14917 -7.10005,-2.92291 -7.10005,-7.31956 0,-2.73429 2.15716,-5.41298 5.61461,-6.97207 1.40374,-0.633 2.55226,-1.36546 2.55226,-1.62768 0,-0.26222 -1.25298,-1.08333 -2.7844,-1.82468 -11.74947,-5.68782 -22.916846,-17.06676 -29.20283,-29.756073 -1.4835,-2.994702 -2.812407,-5.444912 -2.953128,-5.444912 -0.140715,0 -0.948237,1.565611 -1.794488,3.479137 -2.337578,5.285671 -8.178192,13.886128 -12.48991,18.391708 -4.954458,5.17722 -9.786274,8.89201 -15.7496,12.10859 -2.616985,1.41158 -4.758155,2.76833 -4.758155,3.01498 0,0.24666 1.342822,1.09838 2.984049,1.89271 11.67693,5.65147 22.872636,17.07772 28.991941,29.58895 1.267473,2.59141 2.53896,4.79715 2.825536,4.90165 0.286569,0.1045 1.158376,-1.16765 1.937345,-2.827 2.066746,-4.40251 4.222002,-6.15809 7.56006,-6.15809 2.167525,0 3.133183,0.38136 4.65322,1.83765 2.85053,2.73098 3.03024,5.04714 0.78986,10.18027 -4.456396,10.2104 -6.116627,17.94476 -6.912042,32.20047 l -0.504135,9.03529 -2.307066,2.11426 c -1.908974,1.74945 -2.798051,2.11427 -5.15251,2.11427 -2.356947,0 -3.243272,-0.36458 -5.162738,-2.12364 z"
   style="fill:#ffffff;stroke-width:0.628221" /><path
   id="path180"
   d="m 83.61891,205.35764 c -1.000517,-0.27386 -2.593503,-1.23983 -3.539961,-2.1466 -1.621018,-1.55303 -1.745694,-2.07404 -2.149402,-8.982 C 76.769462,174.37838 73.196349,162.16086 65.291779,151.01681 55.343458,136.99142 37.75775,128.93906 16.647853,128.74312 7.7213061,128.66026 4.7686557,128.02209 2.7239541,125.73367 c -3.23992878,-3.62611 -1.72879622,-9.89375 2.724358,-11.29967 1.1496862,-0.36297 7.1789269,-0.96102 13.3983139,-1.32902 16.540535,-0.97867 24.39358,-3.18991 33.64815,-9.47457 4.588645,-3.11609 10.819213,-9.169506 13.57562,-13.189635 6.576599,-9.591738 10.452716,-22.811242 11.570182,-39.460089 0.662001,-9.863012 1.360488,-12.059618 4.321682,-13.590911 2.447938,-1.265879 3.980559,-1.201722 6.902502,0.288942 3.157086,1.610624 3.624646,3.125871 4.419979,14.323911 1.669221,23.502265 8.908539,39.35955 22.840399,50.030492 9.63956,7.38331 18.58633,10.1228 36.21842,11.09005 12.41448,0.68102 14.41872,1.11993 16.35503,3.58156 2.36195,3.00272 0.91481,8.97827 -2.63432,10.8777 -0.80739,0.4321 -5.78572,0.97647 -11.49865,1.25735 -5.54115,0.27244 -12.24114,0.9187 -14.88886,1.43613 -4.44152,0.86799 -6.55134,1.54142 -17.17642,5.48251 -3.63865,1.34966 -3.85219,1.36111 -6.03811,0.32383 -2.51653,-1.19417 -3.69659,-3.18757 -3.69659,-6.24442 0,-2.65315 1.30827,-4.43113 4.74062,-6.44262 1.53892,-0.90186 2.79803,-1.90874 2.79803,-2.2375 0,-0.32876 -0.88337,-1.07932 -1.96305,-1.66791 -12.89115,-7.02766 -22.285712,-16.43907 -29.240977,-29.293395 -1.668706,-3.084003 -3.336035,-5.705416 -3.70519,-5.825364 -0.369149,-0.119948 -1.358597,1.267715 -2.198773,3.083695 -2.410038,5.20914 -8.215238,13.697144 -12.502136,18.279844 -4.452339,4.75957 -8.157711,7.66453 -14.978227,11.74272 -2.60038,1.55485 -4.8284,3.13007 -4.951156,3.5005 -0.122757,0.37043 2.383375,2.20798 5.56918,4.08344 10.306093,6.06712 19.513041,15.99653 26.021515,28.06339 1.34989,2.50272 2.762784,4.55229 3.139773,4.5546 0.376989,0.003 1.448438,-1.39768 2.380995,-3.1111 3.333189,-6.12416 7.557252,-7.43206 11.445474,-3.54384 1.303952,1.30396 2.135952,2.75534 2.135952,3.72606 0,0.87455 -1.2488,4.93129 -2.775117,9.01497 -3.391632,9.07437 -4.498827,14.70451 -5.431377,27.61885 -0.684585,9.48044 -0.800128,10.04405 -2.396807,11.69141 -2.024159,2.08841 -4.774171,2.95576 -7.235459,2.28206 z"
   style="fill:#ffffff;stroke-width:0.628221" /><path
   id="path182"
   d="m 83.61891,205.35764 c -1.000517,-0.27386 -2.593503,-1.23983 -3.539961,-2.1466 -1.621175,-1.55318 -1.7456,-2.07338 -2.148396,-8.982 -0.928071,-15.91775 -3.447256,-26.76776 -8.396599,-36.1637 -9.962976,-18.91395 -28.324336,-29.09424 -52.886101,-29.32222 -8.9265469,-0.0829 -11.8791973,-0.72103 -13.9238989,-3.00945 -3.24000982,-3.6262 -1.7287148,-9.89427 2.724358,-11.29923 1.1496862,-0.36272 6.9192159,-0.94496 12.8211779,-1.29385 16.294353,-0.96322 24.097282,-2.97381 32.421659,-8.35411 11.196341,-7.236544 18.172964,-16.288828 22.416565,-29.085867 2.65721,-8.013102 3.751364,-13.979446 4.502056,-24.549455 0.714608,-10.061866 1.402158,-12.235707 4.35249,-13.761383 2.447938,-1.265879 3.980559,-1.201722 6.902502,0.288942 3.133672,1.598682 3.62364,3.141646 4.393393,13.835393 0.767988,10.66923 2.051367,17.412791 4.751737,24.968077 5.096588,14.259644 14.310368,24.839033 26.957238,30.952683 7.4212,3.5875 13.83958,4.91929 27.37643,5.68049 12.43373,0.69918 14.42544,1.13629 16.35503,3.58937 2.35788,2.99755 0.9155,8.9779 -2.62197,10.8711 -0.78976,0.42266 -5.86598,0.97939 -11.52437,1.26393 -5.56209,0.2797 -12.36291,0.96788 -15.11294,1.5293 -4.64428,0.94813 -6.90281,1.66671 -16.93897,5.38936 -3.63865,1.34966 -3.85219,1.36111 -6.03811,0.32383 -2.51653,-1.19417 -3.69659,-3.18757 -3.69659,-6.24442 0,-2.65315 1.30827,-4.43113 4.74062,-6.44262 1.53892,-0.90186 2.79803,-1.90874 2.79803,-2.2375 0,-0.32876 -0.88337,-1.07932 -1.96305,-1.66791 C 105.47858,112.47766 96.264443,103.25517 89.063744,90.185753 87.36136,87.095892 85.688464,84.474479 85.346197,84.360389 85.00393,84.2463 84.036476,85.638756 83.1963,87.454736 c -2.410038,5.20914 -8.215238,13.697144 -12.502136,18.279844 -4.452339,4.75957 -8.157711,7.66453 -14.978227,11.74272 -2.60038,1.55485 -4.8284,3.13007 -4.951156,3.5005 -0.122757,0.37043 2.383375,2.20798 5.56918,4.08344 10.306093,6.06712 19.513041,15.99653 26.021515,28.06339 1.34989,2.50272 2.737039,4.552 3.082561,4.55396 0.345521,0.002 1.4142,-1.39585 2.374844,-3.10626 3.449636,-6.142 7.627029,-7.42984 11.508837,-3.54804 2.711452,2.71146 2.703402,3.98076 -0.07085,11.16421 -3.945309,10.2157 -5.353905,17.50923 -6.309203,32.66819 -0.39081,6.20148 -0.550309,6.82698 -2.125699,8.3363 -2.098521,2.01052 -4.79607,2.82185 -7.197055,2.16465 z"
   style="fill:#ffffff;stroke-width:0.628221" /></svg>
