<?xml version="1.0" encoding="UTF-8" standalone="no"?>
<svg
   xmlns:dc="http://purl.org/dc/elements/1.1/"
   xmlns:cc="http://creativecommons.org/ns#"
   xmlns:rdf="http://www.w3.org/1999/02/22-rdf-syntax-ns#"
   xmlns:svg="http://www.w3.org/2000/svg"
   xmlns="http://www.w3.org/2000/svg"
   xmlns:sodipodi="http://sodipodi.sourceforge.net/DTD/sodipodi-0.dtd"
   xmlns:inkscape="http://www.inkscape.org/namespaces/inkscape"
   inkscape:version="1.0 (4035a4f, 2020-05-01)"
   sodipodi:docname="social-media.svg"
   id="svg4"
   version="1.1"
   width="512pt"
   viewBox="0 0 512 512"
   height="512pt">
  <metadata
     id="metadata10">
    <rdf:RDF>
      <cc:Work
         rdf:about="">
        <dc:format>image/svg+xml</dc:format>
        <dc:type
           rdf:resource="http://purl.org/dc/dcmitype/StillImage" />
        <dc:title></dc:title>
      </cc:Work>
    </rdf:RDF>
  </metadata>
  <defs
     id="defs8" />
  <sodipodi:namedview
     inkscape:current-layer="svg4"
     inkscape:window-maximized="0"
     inkscape:window-y="0"
     inkscape:window-x="0"
     inkscape:cy="340.92891"
     inkscape:cx="341.33333"
     inkscape:zoom="1.2363281"
     showgrid="false"
     id="namedview6"
     inkscape:window-height="943"
     inkscape:window-width="1563"
     inkscape:pageshadow="2"
     inkscape:pageopacity="0"
     guidetolerance="10"
     gridtolerance="10"
     objecttolerance="10"
     borderopacity="1"
     bordercolor="#666666"
     pagecolor="#ffffff" />
  <path
     id="path2"
     d="m437.019531 74.980469c-48.351562-48.351563-112.640625-74.980469-181.019531-74.980469-68.382812 0-132.667969 26.628906-181.019531 74.980469-48.351563 48.351562-74.980469 112.636719-74.980469 181.019531 0 68.378906 26.628906 132.667969 74.980469 181.019531 48.351562 48.351563 112.636719 74.980469 181.019531 74.980469 68.378906 0 132.667969-26.628906 181.019531-74.980469 48.351563-48.351562 74.980469-112.640625 74.980469-181.019531 0-68.382812-26.628906-132.667969-74.980469-181.019531zm-308.679687 367.40625c10.707031-61.648438 64.128906-107.121094 127.660156-107.121094 63.535156 0 116.953125 45.472656 127.660156 107.121094-36.347656 24.972656-80.324218 39.613281-127.660156 39.613281s-91.3125-14.640625-127.660156-39.613281zm46.261718-218.519531c0-44.886719 36.515626-81.398438 81.398438-81.398438s81.398438 36.515625 81.398438 81.398438c0 44.882812-36.515626 81.398437-81.398438 81.398437s-81.398438-36.515625-81.398438-81.398437zm235.042969 197.710937c-8.074219-28.699219-24.109375-54.738281-46.585937-75.078125-13.789063-12.480469-29.484375-22.328125-46.359375-29.269531 30.5-19.894531 50.703125-54.3125 50.703125-93.363281 0-61.425782-49.976563-111.398438-111.402344-111.398438s-111.398438 49.972656-111.398438 111.398438c0 39.050781 20.203126 73.46875 50.699219 93.363281-16.871093 6.941406-32.570312 16.785156-46.359375 29.265625-22.472656 20.339844-38.511718 46.378906-46.585937 75.078125-44.472657-41.300781-72.355469-100.238281-72.355469-165.574219 0-124.617188 101.382812-226 226-226s226 101.382812 226 226c0 65.339844-27.882812 124.277344-72.355469 165.578125zm0 0" />
  <path
     transform="scale(0.74999998)"
     id="path12"
     d="M 320.30332,681.75544 C 256.34573,677.19406 197.75281,656.71257 146.60234,621.03728 74.682865,570.87649 24.665983,494.87668 7.2588319,409.30718 c -8.8560787,-43.53442 -8.8560787,-92.41327 0,-135.94769 C 33.411269,144.80019 132.20186,41.717885 259.14447,10.531297 288.9,3.2211167 308.46293,0.8925205 340.52449,0.84454861 c 31.91258,-0.0477491 54.46884,2.56713909 83.1086,9.63456639 96.378,23.783172 178.55571,89.864555 223.03502,179.348635 19.18953,38.60577 30.71128,79.76675 34.36501,122.76761 1.10253,12.97569 1.10253,44.50025 0,57.47594 -8.88028,104.51229 -65.12204,198.64489 -153.33553,256.63977 -44.62788,29.34005 -95.45558,47.54857 -149.58522,53.58742 -10.74804,1.19909 -48.19257,2.14279 -57.80905,1.45695 z m 38.0158,-39.47109 c 29.4806,-1.00183 62.95434,-8.21256 93.4218,-20.12441 17.76082,-6.94393 49.13293,-23.56757 58.35681,-30.92244 l 2.07923,-1.65792 -2.45327,-10.07573 c -6.79226,-27.89609 -18.38551,-50.80698 -36.66451,-72.45735 -26.91788,-31.8826 -66.83629,-53.45348 -108.95013,-58.87384 -21.20248,-2.72891 -45.68312,-1.23014 -66.43204,4.06714 -62.85102,16.04613 -111.22797,66.13436 -125.42242,129.85912 l -1.68117,7.54742 2.03738,1.62454 c 9.18319,7.32242 40.59529,23.96121 58.31495,30.88906 31.19366,12.19578 63.73407,19.08245 96.25277,20.37041 7.56271,0.29953 15.02432,0.45639 16.58135,0.34858 1.55703,-0.10782 8.10869,-0.37538 14.55925,-0.59458 z M 138.647,556.48657 c 2.74593,-9.22464 8.67852,-23.49603 14.15704,-34.05612 20.99965,-40.47777 53.61729,-72.48748 94.50086,-92.73955 7.22907,-3.58098 13.12439,-6.72734 13.1007,-6.99189 -0.0237,-0.26455 -3.35893,-2.84688 -7.41167,-5.7385 -9.46594,-6.75396 -22.02833,-19.21779 -29.85427,-29.62008 -44.76081,-59.49632 -38.56739,-141.89949 14.60291,-194.29113 57.9127,-57.06458 150.51379,-56.66331 208.06257,0.90158 29.43074,29.43899 44.71464,68.06286 43.2776,109.36666 -1.11729,32.11373 -11.20513,60.29822 -30.53323,85.30706 -9.1917,11.89323 -24.94144,26.8095 -33.88721,32.0939 -1.34436,0.79413 -2.44429,1.67285 -2.44429,1.9527 0,0.27985 5.91469,3.4485 13.14376,7.04144 34.41166,17.10305 62.49976,41.92508 83.52617,73.81381 9.8089,14.87619 20.24804,36.75707 24.6879,51.74685 0.98824,3.33649 2.04938,6.34795 2.35806,6.69213 0.3087,0.34418 5.64801,-4.56956 11.86514,-10.91943 46.48062,-47.47302 75.08408,-107.65032 83.34097,-175.33668 1.7844,-14.62765 2.01476,-50.6445 0.41646,-65.11216 C 632.71876,230.5989 594.93018,159.95726 533.73517,109.03694 487.8633,70.866987 432.32732,47.59941 371.78546,41.185832 c -15.25648,-1.616215 -45.90017,-1.587528 -61.46598,0.05754 -58.17328,6.148032 -111.8011,28.163634 -157.85187,64.802258 -11.8432,9.42262 -37.08764,34.74974 -46.67355,46.82641 -36.733313,46.27796 -57.746168,97.4886 -64.718104,157.72512 -1.572338,13.58478 -1.318241,50.70155 0.44575,65.11216 7.182398,58.67528 29.329324,111.09835 65.949954,156.10743 8.20868,10.08898 28.50264,31.01858 29.2243,30.13966 0.27852,-0.33922 1.15648,-2.80064 1.95104,-5.46984 z M 358.31912,406.01915 c 45.99046,-7.3539 82.08018,-42.82509 90.31833,-88.77039 1.78366,-9.94776 1.76808,-27.70548 -0.0332,-37.76058 -9.31236,-51.98545 -54.48671,-89.80408 -107.27096,-89.80408 -52.75344,0 -97.96402,37.84896 -107.27099,89.80408 -1.80121,10.0551 -1.81679,27.81282 -0.0332,37.76058 8.31331,46.36445 45.34346,82.31132 91.82482,89.13856 7.65102,1.12379 24.31649,0.9348 32.46508,-0.36817 z"
     style="fill:#ffffff;stroke-width:0.808847" />
</svg>
